<svg width="20" height="23" viewBox="0 0 20 23" fill="none" xmlns="http://www.w3.org/2000/svg">
<path fill-rule="evenodd" clip-rule="evenodd" d="M13.167 3.64952C13.998 2.66326 14.4149 1.59772 14.4149 0.456507V0.456493C14.4149 0.305131 14.4079 0.152559 14.391 0C13.8121 0.03003 13.1965 0.205421 12.5458 0.522567C11.8936 0.84452 11.3559 1.2481 10.933 1.73349C10.0861 2.69214 9.60918 3.8646 9.60918 4.96016C9.60918 5.11158 9.6189 5.25567 9.63566 5.39258C10.951 5.49949 12.1641 4.82198 13.167 3.64952ZM17.5912 19.9887C18.0644 19.314 18.4729 18.5802 18.818 17.7829C18.9603 17.4449 19.0941 17.0928 19.2208 16.7251C18.6363 16.48 18.1109 16.135 17.6405 15.6885C16.6024 14.7264 16.0743 13.5148 16.0588 12.0588C16.0419 10.1895 16.8911 8.73236 18.6081 7.69202C17.6489 6.32856 16.2066 5.57175 14.2867 5.41681C13.5782 5.35666 12.7134 5.50935 11.6887 5.8781C10.6051 6.27573 9.96595 6.47518 9.77735 6.47518C9.52509 6.47518 8.9497 6.30461 8.05359 5.96825C7.15494 5.63302 6.4318 5.46245 5.88036 5.46245C4.87255 5.47921 3.93672 5.7412 3.07061 6.25531C2.2045 6.76943 1.51249 7.46975 0.992309 8.35755C0.330442 9.46283 0 10.7818 0 12.3111C0 13.6461 0.245085 15.025 0.733989 16.4491C1.1905 17.7675 1.77321 18.9239 2.48198 19.9211C3.14259 20.855 3.69403 21.5142 4.1349 21.8987C4.82565 22.541 5.51766 22.8466 6.21193 22.8171C6.66844 22.8016 7.26551 22.6452 8.00669 22.3452C8.74673 22.0466 9.4386 21.8987 10.0837 21.8987C10.6988 21.8987 11.3715 22.0466 12.1035 22.3452C12.8331 22.6452 13.4599 22.7931 13.9797 22.7931C14.7037 22.7762 15.3798 22.479 16.0108 21.8987C16.4179 21.5451 16.9461 20.9085 17.5912 19.9887Z" fill="white"/>
</svg>
