<svg xmlns="http://www.w3.org/2000/svg" xmlns:xlink="http://www.w3.org/1999/xlink" version="1.1" width="256" height="256" viewBox="0 0 256 256" xml:space="preserve">

<defs>
</defs>
<g style="stroke: none; stroke-width: 0; stroke-dasharray: none; stroke-linecap: butt; stroke-linejoin: miter; stroke-miterlimit: 10; fill: none; fill-rule: nonzero; opacity: 1;" transform="translate(1.4065934065934016 1.4065934065934016) scale(2.81 2.81)" >
	<circle cx="45" cy="45" r="45" style="stroke: none; stroke-width: 1; stroke-dasharray: none; stroke-linecap: butt; stroke-linejoin: miter; stroke-miterlimit: 10; fill: rgb(243,244,245); fill-rule: nonzero; opacity: 1;" transform="  matrix(1 0 0 1 0 0) "/>
	<path d="M 71.803 63.317 c 0.141 -2.314 0.546 -4.286 0.546 -4.286 s -1.354 0.139 -2.038 0.139 c -0.674 0 -2.038 -0.139 -2.038 -0.139 s 0.405 1.971 0.546 4.286 c -2.315 -0.141 -4.286 -0.546 -4.286 -0.546 s 0.139 1.019 0.139 2.038 c 0 1.019 -0.139 2.038 -0.139 2.038 s 1.971 -0.405 4.286 -0.546 c -0.141 2.314 -0.546 4.286 -0.546 4.286 s 1.019 -0.139 2.038 -0.139 c 1.019 0 2.038 0.139 2.038 0.139 s -0.405 -1.971 -0.546 -4.286 c 2.314 0.141 4.286 0.546 4.286 0.546 s -0.139 -1.354 -0.139 -2.038 c 0 -0.674 0.139 -2.038 0.139 -2.038 S 74.117 63.176 71.803 63.317 z" style="stroke: none; stroke-width: 1; stroke-dasharray: none; stroke-linecap: butt; stroke-linejoin: miter; stroke-miterlimit: 10; fill: rgb(255,0,0); fill-rule: nonzero; opacity: 1;" transform=" matrix(1 0 0 1 0 0) " stroke-linecap="round" />
	<path d="M 68.819 26.683 c -0.141 2.314 -0.546 4.286 -0.546 4.286 s 1.019 -0.139 2.038 -0.139 c 1.019 0 2.038 0.139 2.038 0.139 s -0.405 -1.971 -0.546 -4.286 c 2.314 0.141 4.286 0.546 4.286 0.546 s -0.139 -1.354 -0.139 -2.038 c 0 -0.674 0.139 -2.038 0.139 -2.038 s -1.971 0.405 -4.286 0.546 c 0.141 -2.314 0.546 -4.286 0.546 -4.286 s -1.354 0.139 -2.038 0.139 c -0.674 0 -2.038 -0.139 -2.038 -0.139 s 0.405 1.971 0.546 4.286 c -2.315 -0.141 -4.286 -0.546 -4.286 -0.546 s 0.139 1.019 0.139 2.038 c 0 1.019 -0.139 2.038 -0.139 2.038 S 66.505 26.824 68.819 26.683 z" style="stroke: none; stroke-width: 1; stroke-dasharray: none; stroke-linecap: butt; stroke-linejoin: miter; stroke-miterlimit: 10; fill: rgb(255,0,0); fill-rule: nonzero; opacity: 1;" transform=" matrix(1 0 0 1 0 0) " stroke-linecap="round" />
	<path d="M 18.197 26.683 c -0.141 2.314 -0.546 4.286 -0.546 4.286 s 1.019 -0.139 2.038 -0.139 c 1.019 0 2.038 0.139 2.038 0.139 s -0.405 -1.971 -0.546 -4.286 c 2.314 0.141 4.285 0.546 4.285 0.546 s -0.138 -1.354 -0.138 -2.038 c 0 -0.674 0.138 -2.038 0.138 -2.038 s -1.971 0.405 -4.285 0.546 c 0.141 -2.314 0.546 -4.286 0.546 -4.286 s -1.354 0.139 -2.038 0.139 c -0.674 0 -2.038 -0.139 -2.038 -0.139 s 0.405 1.971 0.546 4.286 c -2.314 -0.141 -4.286 -0.546 -4.286 -0.546 s 0.139 1.019 0.139 2.038 c 0 1.019 -0.139 2.038 -0.139 2.038 S 15.883 26.824 18.197 26.683 z" style="stroke: none; stroke-width: 1; stroke-dasharray: none; stroke-linecap: butt; stroke-linejoin: miter; stroke-miterlimit: 10; fill: rgb(255,0,0); fill-rule: nonzero; opacity: 1;" transform=" matrix(1 0 0 1 0 0) " stroke-linecap="round" />
	<path d="M 21.181 63.317 c 0.141 -2.314 0.546 -4.286 0.546 -4.286 s -1.354 0.139 -2.038 0.139 c -0.674 0 -2.038 -0.139 -2.038 -0.139 s 0.405 1.971 0.546 4.286 c -2.314 -0.141 -4.286 -0.546 -4.286 -0.546 s 0.139 1.019 0.139 2.038 c 0 1.019 -0.139 2.038 -0.139 2.038 s 1.971 -0.405 4.286 -0.546 c -0.141 2.314 -0.546 4.286 -0.546 4.286 s 1.019 -0.139 2.038 -0.139 c 1.019 0 2.038 0.139 2.038 0.139 s -0.405 -1.971 -0.546 -4.286 c 2.314 0.141 4.285 0.546 4.285 0.546 s -0.138 -1.354 -0.138 -2.038 c 0 -0.674 0.138 -2.038 0.138 -2.038 S 23.495 63.176 21.181 63.317 z" style="stroke: none; stroke-width: 1; stroke-dasharray: none; stroke-linecap: butt; stroke-linejoin: miter; stroke-miterlimit: 10; fill: rgb(255,0,0); fill-rule: nonzero; opacity: 1;" transform=" matrix(1 0 0 1 0 0) " stroke-linecap="round" />
	<path d="M 51.603 0.487 C 49.447 0.17 47.244 0 45 0 s -4.447 0.17 -6.603 0.487 v 37.91 H 0.487 C 0.17 40.553 0 42.756 0 45 s 0.17 4.447 0.487 6.603 h 37.91 v 37.91 C 40.553 89.83 42.756 90 45 90 s 4.447 -0.17 6.603 -0.487 v -37.91 h 37.91 C 89.83 49.447 90 47.244 90 45 s -0.17 -4.447 -0.487 -6.603 h -37.91 V 0.487 z" style="stroke: none; stroke-width: 1; stroke-dasharray: none; stroke-linecap: butt; stroke-linejoin: miter; stroke-miterlimit: 10; fill: rgb(255,0,0); fill-rule: nonzero; opacity: 1;" transform=" matrix(1 0 0 1 0 0) " stroke-linecap="round" />
</g>
</svg>